PathFileType	4	(X/Y/Z)	C:\Users\°ÂÌØÂü\Desktop\20201223\Trimmed_Trimmed_Trimmed_Trimmed_bx_n_0_501.trc
DataRate	CameraRate	NumFrames	NumMarkers	Units	OrigDataRate	OrigDataStartFrame	OrigNumFrames
50.00	50.00	       6	43	mm	50.00	702	       802
Frame#	Time	Top.Head			R.Acromium			L.Acromium			Sternum			R.ASIS			L.ASIS			V.Sacral			R.Thigh.Upper			R.Thigh.Front			R.Thigh.Rear			R.Knee.Lat			R.Knee.Med			R.Shank.Upper			R.Shank.Front			R.Shank.Rear			R.Ankle.Lat			R.Midfoot.Lat			R.Toe.Lat			R.Toe.Tip			R.Toe.Med			R.Ankle.Med			R.Midfoot.Sup			R.Heel			L.Thigh.Upper			L.Thigh.Front			L.Thigh.Rear			L.Knee.Lat			L.Knee.Med			L.Shank.Upper			L.Shank.Front			L.Shank.Rear			L.Ankle.Lat			L.Midfoot.Lat			L.Toe.Lat			L.Toe.Tip			L.Toe.Med			L.Ankle.Med			L.Midfoot.Sup			L.Heel			origin1 front left			origin2 front right			origin 3 back right			origin 4 back leftt			
		X1	Y1	Z1	X2	Y2	Z2	X3	Y3	Z3	X4	Y4	Z4	X5	Y5	Z5	X6	Y6	Z6	X7	Y7	Z7	X8	Y8	Z8	X9	Y9	Z9	X10	Y10	Z10	X11	Y11	Z11	X12	Y12	Z12	X13	Y13	Z13	X14	Y14	Z14	X15	Y15	Z15	X16	Y16	Z16	X17	Y17	Z17	X18	Y18	Z18	X19	Y19	Z19	X20	Y20	Z20	X21	Y21	Z21	X22	Y22	Z22	X23	Y23	Z23	X24	Y24	Z24	X25	Y25	Z25	X26	Y26	Z26	X27	Y27	Z27	X28	Y28	Z28	X29	Y29	Z29	X30	Y30	Z30	X31	Y31	Z31	X32	Y32	Z32	X33	Y33	Z33	X34	Y34	Z34	X35	Y35	Z35	X36	Y36	Z36	X37	Y37	Z37	X38	Y38	Z38	X39	Y39	Z39	X40	Y40	Z40	X41	Y41	Z41	X42	Y42	Z42	X43	Y43	Z43	

702	14.020	-248.20810	249.28323	1576.40674	-386.97223	63.02792	1322.86499	-392.01358	419.90179	1316.82202	-465.20264	242.27489	1131.99878	-726.42413	139.66016	969.03314	-682.07581	353.81277	961.14673	-866.30798	262.12521	1090.34338	-797.12097	84.87517	820.88611	-698.52893	132.96823	796.38245	-786.06689	96.78799	704.64661	-769.67041	117.20638	588.82056	-736.73547	223.02196	549.17908	-781.57593	115.41915	523.57184	-701.43866	165.89140	525.26685	-777.29187	107.13576	471.56039	-698.90747	134.31767	209.57626	-617.42279	76.74548	164.92363	-571.09442	55.37932	163.22052	-496.20212	97.94995	162.18372	-537.39380	148.65668	164.21626	-652.31226	210.66364	224.75644	-600.65613	186.26353	174.57983	-728.58118	201.72418	168.24156	-762.67786	451.52402	847.12964	-679.80316	385.79767	811.59808	-760.09332	445.80920	728.45056	-748.62769	422.20157	592.69653	-738.59528	312.47946	557.51544	-755.42609	426.44589	546.35852	-696.20050	366.85217	532.82037	-791.75195	433.74960	473.03345	-683.63959	425.57468	213.03432	-579.09650	464.83258	164.43268	-540.21594	474.76669	159.38757	-486.44824	417.82901	167.80861	-527.03357	381.83777	177.18437	-655.09729	332.68832	211.34770	-598.84991	347.18692	173.20511	-736.28192	357.29510	160.93146	-444.11142	448.62488	146.55731	-450.48669	74.91614	143.28993	-806.40985	82.43903	141.21330	-799.37079	457.17267	145.22653	
703	14.040	-248.14688	249.59079	1576.52234	-386.78824	63.16439	1323.04736	-391.93292	420.07266	1316.80762	-464.96948	242.27582	1131.80042	-726.42340	140.26843	968.52722	-682.05334	353.54739	961.19470	-866.16833	262.08655	1090.32996	-796.91968	84.83242	820.92804	-698.37592	132.94785	796.38727	-785.92932	96.71552	704.68243	-769.52197	117.16576	588.85181	-736.57397	223.07230	549.22943	-781.49457	115.41859	523.57056	-701.35693	165.88918	525.25885	-777.22369	107.10559	471.59561	-698.90167	134.32216	209.58157	-617.41022	76.75381	164.92049	-571.09027	55.38303	163.21536	-496.20084	97.94498	162.18623	-537.38312	148.66588	164.20537	-652.29663	210.66734	224.76085	-600.64569	186.26445	174.57846	-728.54083	201.74068	168.24664	-762.57190	451.44128	847.08203	-679.63049	385.76605	811.60223	-759.97028	445.80576	728.46857	-748.50189	422.16815	592.70300	-738.61157	312.52539	557.48462	-755.32867	426.44794	546.36426	-696.11670	366.82239	532.84845	-791.59369	433.79309	473.05191	-683.63556	425.59766	213.04604	-579.07452	464.80203	164.45129	-540.20172	474.75549	159.41403	-486.42987	417.80679	167.80437	-527.02136	381.77716	177.14395	-655.07452	332.69128	211.35553	-598.84503	347.17508	173.20226	-736.25641	357.31430	160.93649	-444.11313	448.61716	146.55449	-450.48700	74.91443	143.30821	-806.40399	82.43265	141.22682	-799.36688	457.17535	145.22569	
704	14.060	-248.13373	249.89745	1576.65344	-386.62247	63.29766	1323.23193	-391.85446	420.25131	1316.78577	-464.75635	242.27615	1131.71558	-726.34741	140.86317	968.08545	-681.97607	353.28015	961.29474	-866.02142	262.04718	1090.30786	-796.72388	84.79781	820.96582	-698.23010	132.93623	796.39728	-785.80249	96.65643	704.71320	-769.37061	117.13158	588.87390	-736.42120	223.11984	549.27136	-781.40704	115.42972	523.56488	-701.28119	165.89587	525.25165	-777.15729	107.07877	471.63116	-698.89789	134.32607	209.58527	-617.39764	76.76013	164.92212	-571.08197	55.38820	163.21188	-496.20132	97.94074	162.18816	-537.37231	148.67537	164.19890	-652.28534	210.67009	224.76395	-600.63531	186.26558	174.57591	-728.50574	201.75505	168.25262	-762.47949	451.36505	847.03845	-679.48340	385.74445	811.59711	-759.85767	445.81271	728.48340	-748.40051	422.13843	592.69714	-738.62964	312.56674	557.45752	-755.23865	426.46225	546.37207	-696.04071	366.79507	532.87305	-791.45062	433.85388	473.08105	-683.63312	425.61871	213.05670	-579.05884	464.77881	164.46144	-540.19019	474.74963	159.43385	-486.41394	417.78192	167.80113	-527.01178	381.72226	177.10629	-655.05322	332.69000	211.36766	-598.84418	347.16455	173.20076	-736.23615	357.33060	160.94635	-444.11343	448.60635	146.54807	-450.48804	74.91053	143.32404	-806.39630	82.42674	141.23845	-799.36487	457.17938	145.22836	
705	14.080	-248.15063	250.21121	1576.78894	-386.47589	63.43053	1323.40845	-391.78433	420.43567	1316.75903	-464.56461	242.27661	1131.74561	-726.19586	141.43864	967.71204	-681.84448	353.01166	961.44629	-865.87183	262.00641	1090.27979	-796.53851	84.77147	820.99512	-698.09070	132.93243	796.41095	-785.68719	96.61137	704.73798	-769.22382	117.10504	588.88330	-736.28375	223.16164	549.30243	-781.31592	115.45120	523.55682	-701.21356	165.90994	525.24512	-777.09509	107.05729	471.66461	-698.89630	134.32903	209.58754	-617.38586	76.76418	164.92763	-571.07025	55.39391	163.21040	-496.20392	97.93737	162.18915	-537.36218	148.68483	164.19682	-652.27948	210.67152	224.76540	-600.62622	186.26802	174.57246	-728.47955	201.76535	168.25957	-762.39783	451.30081	847.00201	-679.36499	385.73340	811.58453	-759.76038	445.83051	728.49866	-748.32520	422.11237	592.67969	-738.64459	312.60004	557.43304	-755.15997	426.48782	546.38251	-695.97284	366.77209	532.89130	-791.32678	433.92902	473.11758	-683.63257	425.63574	213.06531	-579.04987	464.76266	164.46326	-540.18146	474.74744	159.44682	-486.40054	417.75415	167.79964	-527.00427	381.67447	177.07335	-655.03595	332.68378	211.38335	-598.84790	347.15561	173.20039	-736.22235	357.34399	160.96013	-444.11182	448.59354	146.53818	-450.48907	74.90490	143.33591	-806.38812	82.42261	141.24657	-799.36487	457.18491	145.23412	
706	14.100	-248.18237	250.53723	1576.92554	-386.35001	63.56673	1323.57373	-391.73062	420.62424	1316.73792	-464.39569	242.27798	1131.89209	-725.96844	141.98903	967.41107	-681.65894	352.74246	961.64893	-865.72375	261.96384	1090.24915	-796.36548	84.75272	821.01337	-697.95477	132.93526	796.42566	-785.58154	96.57932	704.75745	-769.08759	117.08682	588.87811	-736.16534	223.19615	549.32196	-781.22314	115.48193	523.54797	-701.15393	165.92911	525.23962	-777.03809	107.04374	471.69345	-698.89667	134.33110	209.58894	-617.37549	76.76605	164.93573	-571.05646	55.39942	163.21074	-496.20886	97.93473	162.18892	-537.35364	148.69405	164.19815	-652.27930	210.67149	224.76515	-600.61957	186.27296	174.56842	-728.46375	201.77069	168.26723	-762.32117	451.25275	846.97504	-679.27386	385.73267	811.56689	-759.68060	445.85751	728.51782	-748.27405	422.08948	592.65283	-738.65070	312.62277	557.41040	-755.09460	426.52173	546.39551	-695.91162	366.75580	532.90100	-791.22382	434.01413	473.15778	-683.63391	425.64737	213.07120	-579.04700	464.75317	164.45789	-540.17529	474.74713	159.45320	-486.38931	417.72397	167.80008	-526.99823	381.63446	177.04625	-655.02490	332.67255	211.40129	-598.85638	347.14844	173.20050	-736.21527	357.35480	160.97647	-444.10831	448.58029	146.52530	-450.48965	74.89842	143.34296	-806.38086	82.42155	141.24989	-799.36700	457.19193	145.24219	
707	14.120	-248.21887	250.87726	1577.06848	-386.24683	63.71060	1323.73315	-391.70264	420.81638	1316.73938	-464.25101	242.28104	1132.15649	-725.66479	142.50842	967.18701	-681.41974	352.47318	961.90216	-865.58069	261.91962	1090.21948	-796.20386	84.74012	821.01990	-697.81775	132.94380	796.43823	-785.48157	96.55797	704.77362	-768.96570	117.07707	588.85876	-736.06641	223.22305	549.33112	-781.13000	115.52105	523.53998	-701.09998	165.95068	525.23578	-776.98541	107.04120	471.71545	-698.89832	134.33282	209.59012	-617.36731	76.76627	164.94496	-571.04242	55.40430	163.21234	-496.21600	97.93245	162.18718	-537.34717	148.70291	164.20120	-652.28406	210.67007	224.76340	-600.61591	186.28142	174.56401	-728.45770	201.77113	168.27505	-762.24200	451.22311	846.95868	-679.20428	385.74100	811.54688	-759.61737	445.89011	728.54352	-748.24249	422.06900	592.61993	-738.64136	312.63358	557.38977	-755.04193	426.55991	546.41052	-695.85480	366.74863	532.90100	-791.14081	434.10413	473.19852	-683.63702	425.65332	213.07430	-579.04913	464.74976	164.44733	-540.17169	474.74728	159.45364	-486.37949	417.69238	167.80214	-526.99298	381.60217	177.02539	-655.02142	332.65701	211.41994	-598.86908	347.14304	173.20015	-736.21436	357.36356	160.99367	-444.10315	448.56830	146.51030	-450.48941	74.89229	143.34502	-806.37604	82.42460	141.24767	-799.37140	457.20004	145.25169	
